<svg xmlns="http://www.w3.org/2000/svg" width="60" height="60" viewBox="0 0 60 60"><g fill="#ABD0D5"><path d="M30.833 34.451s3.78 4.48 2.836 10.965c-.942 6.486-5.796 10.307-5.796 10.307s6.507.152 9.311-5.832c2.801-5.986 1.479-8.686-.82-11.385-2.3-2.701-5.531-4.055-5.531-4.055zm11.554-9.445l-4.102-11.125h7.666l3.542 10z"/><path d="M45.285 34.422l-3.25-9.916s6.332.082 8.416 1c2.084.916 2.584 2.166 2.417 3.5-.167 1.332-1.75 5.5-1.75 5.5l-5.833-.084z"/></g><path fill="none" d="M45.825 36.254c0 .74-.011 1.455.002 2.17.006.295.192.449.485.451.558.004 1.117.031 1.668-.02.172-.017.449-.248.459-.398.049-.725.021-1.455.021-2.203h-2.635zM24.803 23.113c-.026-.037-.055-.072-.082-.109h-4.127c-.527.002-.944-.203-1.215-.658-.532-.893.104-1.975 1.179-1.981 1.614-.015 3.229-.005 4.871-.005l.654-2.608c-.083-.019-.125-.033-.168-.033-4.171 0-8.343-.01-12.514.009-1.186.004-2.116.953-2.14 2.141a117.874 117.874 0 0 0-.005 3.568c.012 1.254.95 2.203 2.209 2.209 2.863.014 5.727.01 8.591-.002a.618.618 0 0 0 .442-.244 5.311 5.311 0 0 1 1.922-1.836c.161-.095.257-.3.383-.451zm-9.564-.109a1.34 1.34 0 0 1-1.34-1.295 1.339 1.339 0 0 1 1.283-1.35 1.341 1.341 0 0 1 1.362 1.317 1.335 1.335 0 0 1-1.305 1.328zm-1.336 7.455c.003.32.188.479.504.48.542.002 1.084.002 1.626-.002.315-.002.501-.158.504-.479.009-.699.003-1.401.003-2.133h-2.641c0 .732-.004 1.435.004 2.134zm2.295-15.393h10.179c.197 0 .377.037.499-.228.76-1.655 2.082-2.432 3.893-2.418 1.069.006 2.14 0 3.232 0-.021-.123-.028-.209-.05-.291-.309-1.254-.617-2.506-.93-3.758-.228-.91-.65-1.238-1.597-1.24l-13.88-.002c-.964 0-1.378.33-1.612 1.274a9326.3 9326.3 0 0 0-1.543 6.189c-.036.146-.06.297-.094.471.672.003 1.288.003 1.903.003zm12.98 1.205c-.297 1.18-.594 2.36-.887 3.543-.261 1.051-.52 2.1-.783 3.174h20.553c-.013-.092-.016-.164-.033-.234-.555-2.221-1.104-4.441-1.672-6.658-.182-.709-.652-1.027-1.443-1.027-4.73-.002-9.464 0-14.194.002-.884-.001-1.325.347-1.541 1.2zm19.624 9.379H26.771c-1.336.002-2.278.945-2.288 2.271-.009 1.072-.002 2.146-.002 3.218.002 1.561.895 2.446 2.465 2.446 3.613.002 7.227.002 10.841.002 3.686 0 7.373.004 11.059-.004 1.312-.002 2.254-.942 2.266-2.246.011-1.133.011-2.262 0-3.394-.012-1.361-.948-2.293-2.31-2.293zm-20.359 5.289a1.337 1.337 0 0 1-1.315-1.316 1.336 1.336 0 0 1 1.349-1.326 1.336 1.336 0 0 1 1.294 1.338 1.338 1.338 0 0 1-1.328 1.304zm13.232.002c-1.291.002-2.583 0-3.876 0-1.305 0-2.611.002-3.918 0-.855-.004-1.455-.543-1.464-1.312-.008-.784.597-1.336 1.478-1.336 2.6-.004 5.196-.004 7.795 0 .886 0 1.49.545 1.485 1.33-.005.789-.605 1.316-1.5 1.318zm5.491 0a1.338 1.338 0 0 1-1.341-1.291 1.334 1.334 0 0 1 1.278-1.354 1.339 1.339 0 0 1 1.363 1.313 1.332 1.332 0 0 1-1.3 1.332z"/><path d="M41.688 28.295c-2.598-.004-5.194-.004-7.793 0-.883 0-1.485.551-1.479 1.336.009.768.607 1.307 1.464 1.311 1.308.002 2.613 0 3.918 0 1.293 0 2.585.002 3.876 0 .896-.002 1.495-.528 1.5-1.315.006-.787-.6-1.332-1.486-1.332z"/><path d="M53.672 26.945c-.305-1.465-1.104-2.578-2.402-3.312-.258-.146-.371-.322-.44-.6-.622-2.52-1.244-5.043-1.896-7.555-.494-1.914-1.99-3.047-3.961-3.058-1.34-.004-2.677 0-4.013 0h-4.202c-.396-1.59-.785-3.155-1.177-4.719-.513-2.058-1.991-3.216-4.108-3.22-4.644 0-9.288-.002-13.932 0-2.177 0-3.647 1.156-4.167 3.254-.616 2.478-1.232 4.955-1.866 7.429a.863.863 0 0 1-.37.485c-1.649.986-2.508 2.425-2.528 4.353-.012 1.103-.003 2.203-.002 3.308.005 1.869.807 3.295 2.37 4.313.137.09.257.312.263.476.028.838-.002 1.676.02 2.512.036 1.414 1.063 2.662 2.452 2.887.718.115 1.463.084 2.196.086 1.978.006 3.277-1.303 3.281-3.287.002-.656.001-1.311.001-1.969h2.645c0 .969.007 1.908 0 2.848-.018 1.908.787 3.359 2.388 4.391.025.019.045.054.068.078a9.517 9.517 0 0 1 3.235-.574c1.788 0 3.457.503 4.891 1.359v-.16h10.76c0 .756-.009 1.478.004 2.195.021 1.486 1.039 2.748 2.502 2.977.775.121 1.582.086 2.373.076 1.702-.02 3.029-1.358 3.055-3.065.014-.793.016-1.586-.002-2.382-.006-.27.082-.413.312-.555 1.062-.641 1.768-1.572 2.139-2.756.078-.248.135-.508.199-.76v-4.762c-.031-.097-.069-.193-.088-.293zm-8.761-11.877c.791 0 1.263.317 1.444 1.027.566 2.217 1.115 4.438 1.672 6.657.018.07.021.144.031.233H27.506c.264-1.073.522-2.122.783-3.174.293-1.182.59-2.362.887-3.543.216-.854.657-1.201 1.539-1.201 4.732.001 9.465-.001 14.196.001zm-30.52-.472c.514-2.063 1.028-4.127 1.543-6.188.234-.945.648-1.275 1.612-1.275l13.88.002c.945.002 1.369.33 1.596 1.24.312 1.252.623 2.504.931 3.758.021.082.028.168.05.291-1.093 0-2.163.007-3.232 0-1.811-.014-3.133.763-3.893 2.418-.122.265-.302.228-.499.228h-12.08c.032-.177.055-.328.092-.474zm2.146 15.863c-.003.32-.188.477-.504.479-.542.004-1.084.004-1.626.002-.316-.002-.501-.16-.504-.479-.009-.699-.004-1.401-.004-2.133h2.641c0 .729.006 1.432-.003 2.131zm5.962-5.063a.618.618 0 0 1-.442.244c-2.864.012-5.728.016-8.591.002-1.259-.007-2.197-.955-2.209-2.209-.012-1.191-.02-2.379.005-3.568.023-1.188.954-2.137 2.14-2.141 4.171-.019 8.343-.009 12.514-.009.043 0 .085.017.168.033l-.654 2.608c-1.643 0-3.257-.01-4.871.004-1.074.009-1.711 1.091-1.179 1.982.271.455.688.66 1.215.658h4.127c.027.037.056.072.082.109-.126.149-.222.354-.382.447a5.359 5.359 0 0 0-1.923 1.84zm25.94 13.061c-.01.15-.287.383-.459.398-.551.051-1.11.022-1.668.02-.293-.002-.479-.156-.485-.451-.013-.715-.002-1.43-.002-2.17h2.637c0 .748.026 1.478-.023 2.203zm2.67-7.119c-.012 1.303-.955 2.244-2.266 2.246-3.686.008-7.373.004-11.059.004-3.614 0-7.228 0-10.841-.002-1.57 0-2.463-.887-2.465-2.447 0-1.072-.007-2.145.002-3.217.01-1.326.952-2.27 2.288-2.271h22.031c1.362 0 2.298.933 2.31 2.295.011 1.13.011 2.259 0 3.392z"/><path d="M28.477 28.297a1.337 1.337 0 0 0-1.349 1.326 1.337 1.337 0 0 0 1.315 1.316 1.338 1.338 0 0 0 1.327-1.306 1.335 1.335 0 0 0-1.293-1.336zm18.627 0a1.333 1.333 0 0 0-1.277 1.354 1.337 1.337 0 0 0 1.341 1.291 1.335 1.335 0 0 0 1.302-1.33 1.341 1.341 0 0 0-1.366-1.315zm-31.921-7.938a1.338 1.338 0 0 0-1.283 1.35 1.34 1.34 0 0 0 1.34 1.295 1.336 1.336 0 0 0 1.306-1.326 1.345 1.345 0 0 0-1.363-1.319zm11.25 29.104c-.363 0-.72-.188-1.125-.59l-2.981-2.984c-.44-.438-.586-.896-.439-1.393.167-.576.647-.949 1.224-.949.365 0 .725.154 1.014.434a81.75 81.75 0 0 1 1.655 1.666l.677.689.333-.354c.36-.383.698-.744 1.049-1.097 1.323-1.338 2.655-2.663 3.987-3.989.173-.172.336-.336.536-.459.197-.127.429-.191.662-.191.336 0 .66.133.908.379.438.426.525 1.057.224 1.568a2.608 2.608 0 0 1-.415.504 2981.693 2981.693 0 0 1-6.161 6.16c-.415.414-.781.606-1.148.606z"/><path d="M27.651 56.857c-6.734 0-12.215-5.479-12.215-12.213 0-6.736 5.48-12.215 12.215-12.215 6.736 0 12.215 5.479 12.215 12.215 0 6.735-5.477 12.213-12.215 12.213zm0-21.787c-5.279 0-9.572 4.295-9.572 9.574 0 5.278 4.293 9.571 9.572 9.571s9.574-4.293 9.574-9.571c0-5.279-4.295-9.574-9.574-9.574z"/></svg>